<?xml version="1.0" encoding="UTF-8"?>
<svg id="Layer_2" data-name="Layer 2" xmlns="http://www.w3.org/2000/svg" viewBox="0 0 43.01 48.01">
  <defs>
    <style>
      .cls-1 {
        fill: #106cff;
      }
    </style>
  </defs>
  <g id="Layer_1-2" data-name="Layer 1">
    <path class="cls-1" d="M43.01.11l-7.69-.02-.15,27.96c-.04.13-.47.5-1.23.48l-24.96-.07c-.74,0-1.17-.35-1.21-.46l.12-21.61,21.4.06.03-6.38L.24,0,.09,27.98c0,1.32.46,2.57,1.34,3.66-.89,1.08-1.37,2.33-1.38,3.65l-.05,12.61,29.08.08.03-6.38-21.4-.06.02-6.21c.04-.13.48-.48,1.22-.48h0l24.96.07c.74,0,1.18.35,1.21.46l-.05,12.61,7.69.02.05-12.6c0-1.32-.46-2.57-1.34-3.66.89-1.08,1.37-2.33,1.38-3.65l.15-27.99Z"/>
  </g>
</svg>